# xmcd CD database file
#
# Track frame offsets:
#	150
#	15568
#	38881
#	55818
#	75568
#	95922
#	114310
#	155686
#	166431
#	183635
#
# Disc length: 2680 seconds
#
# Revision: 2
# Processed by: cddbd v1.5.2PL0 Copyright (c) Steve Scherf et al.
# Submitted via: CDex 1.70beta2
#
DISCID=7c0a760a
DTITLE=Bohemian Blues Band feat Stan "the man" Volarz - Liquor love and lies
DYEAR=1998
DGENRE=Blues
TTITLE0=SLOOPY DRUNK BLUES
TTITLE1=I BELIVE TO MY SOUL
TTITLE2=DOWN HOME GIRL
TTITLE3=MY BABY ( SHE´S A GOOD ´UN)
TTITLE4=THE RED ROOSTER
TTITLE5=300 POUNDS OF JOY
TTITLE6=BROWN LIQUOR
TTITLE7=DON´T YOU LIE TOME
TTITLE8=IT´S ALL OVER NOW
TTITLE9=NEW MINGLEWOOD BLUES
EXTD=YEAR: 1998
EXTT0=
EXTT1=
EXTT2=
EXTT3=
EXTT4=
EXTT5=
EXTT6=
EXTT7=
EXTT8=
EXTT9=
PLAYORDER=
